<svg width="39" height="71" viewBox="0 0 39 71" fill="none" xmlns="http://www.w3.org/2000/svg">
<path d="M36.6796 51.8441C36.6796 49.2958 38.3753 47.6262 38.3753 45.1658C38.3753 42.6176 36.6796 40.948 36.6796 38.4876C36.6796 35.9394 38.3753 34.2698 38.3753 31.8094C38.3753 30.6671 38.0183 29.6126 37.5721 28.646H39L34.8947 21.7042L30.7895 28.646H32.3959C32.7529 29.6126 33.1991 30.5792 33.1991 31.8094C33.1991 34.3577 31.5034 36.0272 31.5034 38.4876C31.5034 41.0359 33.1991 42.7054 33.1991 45.1658C33.1991 47.7141 31.5034 49.3837 31.5034 51.8441C31.5034 54.3923 33.1991 56.0619 33.1991 58.5223C33.1991 59.4889 32.9314 60.3676 32.6636 61.1584L37.8398 56.0619C37.3043 54.7438 36.6796 53.4257 36.6796 51.8441ZM27.8444 58.2587C27.8444 55.7104 26.1487 54.0408 26.1487 51.5804C26.1487 49.0322 27.8444 47.3626 27.8444 44.9022C27.8444 42.354 26.1487 40.6844 26.1487 38.224C26.1487 35.6757 27.8444 34.0062 27.8444 31.5458C27.8444 30.4913 27.5767 29.6126 27.2197 28.646H28.7368L24.6316 21.7042L20.5263 28.646H22.0435C22.4005 29.5247 22.6682 30.4913 22.6682 31.5458C22.6682 34.0941 20.9725 35.7636 20.9725 38.224C20.9725 40.7723 22.6682 42.4418 22.6682 44.9022C22.6682 47.4505 20.9725 49.1201 20.9725 51.5804C20.9725 54.1287 22.6682 55.7983 22.6682 58.2587C22.6682 60.8069 20.9725 62.4765 20.9725 64.9369C20.9725 67.2215 22.4005 68.8032 22.6682 71L26.5057 67.2215C26.238 66.5186 26.0595 65.8156 26.0595 64.9369C26.1487 62.4765 27.8444 60.8069 27.8444 58.2587ZM10.9771 12.5656C10.9771 15.1139 12.6728 16.7834 12.6728 19.2438C12.6728 21.7921 10.9771 23.4616 10.9771 25.922C10.9771 28.4703 12.6728 30.1398 12.6728 32.6002C12.6728 35.1485 10.9771 36.8181 10.9771 39.2785C10.9771 40.4208 11.3341 41.3874 11.6911 42.2661H10.1739L14.2792 49.2079L18.3844 42.2661H16.8673C16.5103 41.2995 16.1533 40.4208 16.1533 39.2785C16.1533 36.7302 17.849 35.0606 17.849 32.6002C17.849 30.052 16.1533 28.3824 16.1533 25.922C16.1533 23.3738 17.849 21.7042 17.849 19.2438C17.849 16.6955 16.1533 15.026 16.1533 12.5656C16.1533 10.0173 17.849 8.34777 17.849 5.88737C17.849 3.60272 16.5103 2.02104 16.2426 0L12.3158 3.69059C12.4943 4.39356 12.6728 5.00866 12.6728 5.79951C12.6728 8.34777 10.9771 10.1052 10.9771 12.5656ZM0.803203 26.0099C0.803203 28.5582 2.49886 30.2277 2.49886 32.6881C2.49886 35.2364 0.803203 36.9059 0.803203 39.3663C0.803203 40.5087 1.16018 41.5631 1.60641 42.5297H0L4.10526 49.4715L8.21053 42.5297H6.87185C6.51487 41.5631 6.06865 40.5965 6.06865 39.3663C6.06865 36.8181 7.7643 35.1485 7.7643 32.6881C7.7643 30.1398 6.06865 28.4703 6.06865 26.0099C6.06865 23.4616 7.7643 21.7921 7.7643 19.3317C7.7643 16.7834 6.06865 15.1139 6.06865 12.6535C6.06865 11.4233 6.51487 10.3688 6.87185 9.31436L1.33867 14.7624C1.87414 16.2562 2.67735 17.5743 2.67735 19.3317C2.49886 21.7921 0.803203 23.4616 0.803203 26.0099Z" fill="#22C55E"/>
</svg>
